<svg height="300" version="1.1" width="480" xmlns="http://www.w3.org/2000/svg">
    <rect style="" fill="#A2A7A8" height="300" id="container" width="480" x="0" y="0"></rect>
    <!--This group is for showing an error message when image download fails -->
    <g id="connectionErrorGroup" transform="matrix(1,0,0,1,0,-14.5)">
        <g height="48" transform="matrix(1,0,0,1,216,90)" viewBox="0 0 48 48" width="48">
            <path style="" d="M0 0h48v48H0V0z" fill="none"></path>
            <path style=""
                d="M22 30h4v4h-4zm0-16h4v12h-4zm1.99-10C12.94 4 4 12.95 4 24s8.94 20 19.99 20S44 35.05 44 24 35.04 4 23.99 4zM24 40c-8.84 0-16-7.16-16-16S15.16 8 24 8s16 7.16 16 16-7.16 16-16 16z"
                fill="#ffffff"></path>
        </g>
        <text style="font-family: Sans-serif; font-size: 24px;" fill="#ffffff" id="conn_err_text"
            transform="matrix(1,0,0,1,95.0417,170)" x="0" y="0"></text>
        <text style="font-family: Sans-serif; font-size: 24px;" fill="#ffffff" id="ttr_text"
            transform="matrix(1,0,0,1,172.8083,210)" x="0" y="0"></text>
    </g>
</svg>