<svg xmlns="http://www.w3.org/2000/svg" width="32" height="30" viewBox="0 0 32 30">
  <path fill="#FFF" d="M27.3110204,4.39591837 C24.2938776,1.56122449 20.2710204,0 16,0 C11.7289796,0 7.70612245,1.56122449 4.68897959,4.39591837 C1.67183673,7.23061224 0,10.9959184 0,15 C0,19.0040816 1.66530612,22.7755102 4.68897959,25.6040816 C7.71265306,28.4326531 11.7289796,30 16,30 C20.2710204,30 24.2938776,28.4387755 27.3110204,25.6040816 C30.3281633,22.7693878 32,19.0040816 32,15 C32,10.9959184 30.3346939,7.2244898 27.3110204,4.39591837 Z M30.5502041,14.3265306 L24.3461224,14.3265306 C24.2873469,12.0122449 23.9412245,9.78367347 23.3338776,7.80612245 C24.5159184,7.23673469 25.6195918,6.52040816 26.6318367,5.6755102 C28.917551,7.96530612 30.3738776,10.9897959 30.5502041,14.3265306 Z M16.7183673,15.6734694 L22.9159184,15.6734694 C22.8636735,17.8040816 22.5502041,19.8428571 22.0081633,21.6673469 C20.3363265,21.0367347 18.5534694,20.6693878 16.7183673,20.5897959 L16.7183673,15.6734694 Z M25.6,4.73877551 C24.7640816,5.43061224 23.8497959,6.01836735 22.8832653,6.50816327 C22.635102,5.85918367 22.3542857,5.24693878 22.0408163,4.67142857 C21.4204082,3.52040816 20.715102,2.57755102 19.9379592,1.85510204 C22.0604082,2.4122449 23.9869388,3.41020408 25.6,4.73877551 Z M16.7183673,1.55510204 C18.2138776,1.86734694 19.6244898,3.15918367 20.7608163,5.26530612 C21.0677551,5.83469388 21.3420408,6.44081633 21.5836735,7.08367347 C20.0489796,7.67755102 18.4097959,8.02653061 16.7183673,8.10612245 L16.7183673,1.55510204 Z M22.0146939,8.3755102 C22.5502041,10.1877551 22.8571429,12.2142857 22.9093878,14.3326531 L16.7183673,14.3326531 L16.7183673,9.45918367 C18.56,9.37959184 20.3428571,9.00612245 22.0146939,8.3755102 Z M15.2816327,14.3265306 L9.08408163,14.3265306 C9.13632653,12.2081633 9.44326531,10.1816327 9.97877551,8.36938776 C11.6506122,9.00612245 13.44,9.37346939 15.275102,9.44693878 L15.275102,14.3265306 L15.2816327,14.3265306 Z M15.2881633,1.55510204 L15.2881633,8.10612245 C13.5967347,8.02653061 11.9510204,7.67755102 10.4228571,7.08367347 C10.6644898,6.44081633 10.9387755,5.83469388 11.2457143,5.26530612 C12.3820408,3.15918367 13.7926531,1.86734694 15.2881633,1.55510204 Z M12.0685714,1.85510204 C11.2914286,2.57755102 10.5861224,3.52653061 9.96571429,4.67142857 C9.65877551,5.24693878 9.37795918,5.85918367 9.12326531,6.50816327 C8.15673469,6.01836735 7.24897959,5.43061224 6.40653061,4.73877551 C8.01959184,3.41020408 9.94612245,2.4122449 12.0685714,1.85510204 Z M5.37469388,5.6755102 C6.38693878,6.52040816 7.49061224,7.23061224 8.67265306,7.80612245 C8.06530612,9.78979592 7.71265306,12.0122449 7.66040816,14.3265306 L1.45632653,14.3265306 C1.63265306,10.9897959 3.08897959,7.96530612 5.37469388,5.6755102 Z M1.45632653,15.6734694 L7.66040816,15.6734694 C7.71918367,18.0061224 8.07183673,20.2408163 8.68571429,22.2306122 C7.51020408,22.8 6.40653061,23.5040816 5.40081633,24.3489796 C3.0955102,22.0530612 1.63265306,19.022449 1.45632653,15.6734694 Z M6.43265306,25.2857143 C7.26857143,24.6 8.17632653,24.0122449 9.13632653,23.5285714 C9.3844898,24.1591837 9.65877551,24.7653061 9.96571429,25.3285714 C10.5861224,26.4795918 11.2914286,27.422449 12.0685714,28.1510204 C9.95918367,27.5938776 8.03918367,26.6020408 6.43265306,25.2857143 Z M15.2881633,28.444898 C13.7926531,28.1326531 12.3820408,26.8408163 11.2457143,24.7346939 C10.9453061,24.177551 10.677551,23.5836735 10.4359184,22.9530612 C11.9640816,22.3591837 13.6032653,22.0102041 15.2881633,21.9367347 L15.2881633,28.444898 Z M9.99836735,21.6673469 C9.45632653,19.8428571 9.14285714,17.8040816 9.09061224,15.6734694 L15.2881633,15.6734694 L15.2881633,20.5897959 C13.4530612,20.6632653 11.6702041,21.0306122 9.99836735,21.6673469 Z M16.724898,28.444898 L16.724898,21.9367347 C18.4097959,22.0163265 20.0489796,22.3591837 21.5771429,22.9530612 C21.3355102,23.5836735 21.0677551,24.177551 20.7673469,24.7346939 C19.6310204,26.8408163 18.2204082,28.1326531 16.724898,28.444898 Z M19.9444898,28.144898 C20.7216327,27.422449 21.4269388,26.4734694 22.0473469,25.322449 C22.3542857,24.7591837 22.6285714,24.1530612 22.8767347,23.522449 C23.8367347,24.0061224 24.7444898,24.5938776 25.5804082,25.2795918 C23.9738776,26.6020408 22.0538776,27.5938776 19.9444898,28.144898 Z M26.6187755,24.3489796 C25.6130612,23.5102041 24.5093878,22.8 23.3338776,22.2306122 C23.9477551,20.2408163 24.3004082,18 24.3591837,15.6734694 L30.5632653,15.6734694 C30.3804082,19.022449 28.917551,22.0530612 26.6187755,24.3489796 Z"/>
</svg>
