<svg xmlns="http://www.w3.org/2000/svg" xmlns:xlink="http://www.w3.org/1999/xlink" width="30" height="20" viewBox="0 0 30 20">
  <defs>
    <path id="play_video3-a" d="M27.8544424,5.390181 C27.6891299,3.4768964 27.5580262,2.85572821 27.1498493,2.05829543 C26.6095837,1.0020065 25.8284238,0.444989619 24.7160121,0.322574035 C23.8554199,0.227688971 20.6191095,0.0944516405 17.6235142,0.0300406115 C12.4381997,-0.0812069318 3.9126948,0.132977054 2.82419339,0.402222081 C2.32136036,0.526975163 1.94372067,0.738388782 1.55085718,1.11593784 C0.862920697,1.77822866 0.452863273,2.72768532 0.288267173,4.0408392 C-0.0882979003,7.04002102 -0.0963575571,10.6628817 0.266595651,13.7706273 C0.422236578,15.1071561 0.743637778,15.9757527 1.34658965,16.6914596 C1.72315473,17.137835 2.37141978,17.517635 2.95117776,17.6309603 C3.35863818,17.710262 5.39531344,17.8206438 8.3629686,17.92384 C8.80436913,17.939077 9.97489994,17.9655687 10.9635512,17.9827103 C13.0234203,18.0182056 16.8115485,17.9969084 18.9769992,17.9383844 C20.4335583,17.8989933 23.0893943,17.7946717 23.5859587,17.757618 C23.7258385,17.7473157 24.0493889,17.727144 24.3047905,17.713119 C25.1647559,17.6662825 25.7112902,17.4922688 26.2247798,17.1019934 C26.889612,16.5972672 27.4041763,15.6642596 27.6216975,14.5703975 C27.8274874,13.5352326 27.9655761,11.6914669 27.9930685,9.5984548 C28.0159938,7.84957416 27.9850984,6.9057448 27.8544424,5.390181 Z M10.3768082,12.8891312 L10.3768082,5.11097996 L17.623156,8.99970926 L10.3768082,12.8891312 Z"/>
  </defs>
  <g fill="none" fill-rule="evenodd" stroke="#FFF" transform="translate(1 1)">
    <use xlink:href="#play_video3-a"/>
    <use xlink:href="#play_video3-a"/>
  </g>
</svg>
