<svg height="300" version="1.1" width="480" xmlns="http://www.w3.org/2000/svg">
    <rect style="" fill="#A2A7A8" height="300" id="container" width="480" x="0" y="0"></rect>
    <!-- This group shows 'tap to download image' message if the user is in data connection -->
    <g id="tapToDownloadGroup" transform="matrix(1,0,0,1,0,4.5)">
        <path style=""
            d="M18 22.48V15c0-2.76 2.24-5 5-5s5 2.24 5 5v7.48c2.41-1.61 4-4.36 4-7.48 0-4.97-4.03-9-9-9s-9 4.03-9 9c0 3.12 1.59 5.87 4 7.48zm19.67 9.26l-9.08-4.52c-.34-.14-.7-.22-1.09-.22H26V15c0-1.66-1.34-3-3-3s-3 1.34-3 3v21.47l-6.85-1.43c-.15-.03-.31-.05-.47-.05-.62 0-1.18.26-1.59.66l-1.58 1.6 9.88 9.88c.55.54 1.3.88 2.12.88H35.1c1.51 0 2.66-1.11 2.87-2.56l1.51-10.54c.02-.14.03-.27.03-.41-.01-1.24-.77-2.31-1.84-2.76z"
            fill="#ffffff" height="48" transform="matrix(1,0,0,1,216,90)" viewBox="0 0 48 48"
            width="48"></path>
        <text style="font-family: Sans-serif; font-size: 24px;" fill="#ffffff" id="ttd_text"
            transform="matrix(1,0,0,1,112.675,170)" x="0" y="0"></text>
    </g>
</svg>